<svg width="137" height="120" viewBox="0 0 137 120" fill="none" xmlns="http://www.w3.org/2000/svg">
<path d="M59.0994 120C87.9173 120 111.279 118.686 111.279 117.066C111.279 115.446 87.9173 114.132 59.0994 114.132C30.2815 114.132 6.91992 115.446 6.91992 117.066C6.91992 118.686 30.2815 120 59.0994 120Z" fill="#92E3A9"/>
<path opacity="0.8" d="M59.0994 120C87.9173 120 111.279 118.686 111.279 117.066C111.279 115.446 87.9173 114.132 59.0994 114.132C30.2815 114.132 6.91992 115.446 6.91992 117.066C6.91992 118.686 30.2815 120 59.0994 120Z" fill="white"/>
<path d="M98.3103 5.49753H45.8439C42.2216 5.49753 39.2852 8.14792 39.2852 11.4173V111.393C39.2852 114.662 42.2216 117.313 45.8439 117.313H98.3103C101.933 117.313 104.869 114.662 104.869 111.393V11.4173C104.869 8.14792 101.933 5.49753 98.3103 5.49753Z" fill="#263238"/>
<path d="M101.952 17.7759H42.1982V105.034H101.952V17.7759Z" fill="white" stroke="#263238" stroke-width="1.33739" stroke-miterlimit="10"/>
<path d="M81.2352 53.1094C86.2933 48.544 86.2933 41.1421 81.2352 36.5767C76.1771 32.0114 67.9763 32.0114 62.9182 36.5767C57.8602 41.1421 57.8602 48.544 62.9182 53.1094C67.9763 57.6747 76.1771 57.6747 81.2352 53.1094Z" fill="#92E3A9"/>
<path d="M89.0816 99.5473H55.0762C54.9996 99.5477 54.9238 99.5344 54.8529 99.5083C54.7821 99.4821 54.7177 99.4436 54.6634 99.3949C54.6092 99.3462 54.5661 99.2883 54.5367 99.2245C54.5073 99.1607 54.4922 99.0923 54.4922 99.0232C54.4917 98.9539 54.5065 98.8852 54.5357 98.8211C54.5649 98.7569 54.6079 98.6987 54.6622 98.6496C54.7166 98.6006 54.7811 98.5618 54.8522 98.5355C54.9232 98.5091 54.9994 98.4958 55.0762 98.4962H89.0816C89.1581 98.4962 89.2339 98.5098 89.3046 98.5363C89.3752 98.5629 89.4394 98.6017 89.4933 98.6507C89.5473 98.6997 89.59 98.7578 89.619 98.8218C89.6479 98.8857 89.6626 98.9542 89.6622 99.0232C89.6622 99.1622 89.601 99.2955 89.4921 99.3938C89.3832 99.4921 89.2356 99.5473 89.0816 99.5473Z" fill="#92E3A9"/>
<path d="M90.1881 63.1053H53.9649C53.2174 63.1053 52.6113 63.6522 52.6113 64.327V68.1811C52.6113 68.8559 53.2174 69.4029 53.9649 69.4029H90.1881C90.9357 69.4029 91.5417 68.8559 91.5417 68.1811V64.327C91.5417 63.6522 90.9357 63.1053 90.1881 63.1053Z" fill="#92E3A9"/>
<path d="M90.1881 74.8839H53.9649C53.2174 74.8839 52.6113 75.4309 52.6113 76.1056V79.9598C52.6113 80.6345 53.2174 81.1815 53.9649 81.1815H90.1881C90.9357 81.1815 91.5417 80.6345 91.5417 79.9598V76.1056C91.5417 75.4309 90.9357 74.8839 90.1881 74.8839Z" fill="#92E3A9"/>
<path d="M78.5261 50.6745L74.7151 48.6941V47.058C75.2669 46.4554 75.6666 45.7516 75.8864 44.9954C76.0176 45.0374 76.1557 45.0591 76.2949 45.0594C76.7674 45.0594 77.0679 43.7371 77.1185 42.7926C77.6687 41.7415 76.9193 41.126 76.9193 41.126C76.9193 41.126 77.2299 40.8457 77.4358 39.7215C77.6417 38.5972 76.71 39.0664 75.9843 38.0366C75.2586 37.0068 74.7387 35.8856 72.3556 35.8856C71.6989 35.8661 71.0509 36.0254 70.4959 36.3427C69.9408 36.66 69.5044 37.1207 69.2433 37.6649C68.6501 37.6669 68.059 37.7292 67.4813 37.8508C66.7521 38.0366 66.5462 40.1907 67.1673 41.0346C67.4454 41.4958 67.5937 42.0116 67.5994 42.5367C67.434 42.3538 67.2619 42.3051 67.1673 42.7195C66.9614 43.6548 67.7918 44.9649 67.7918 44.9649L68.2205 44.8552C68.4365 45.6634 68.8532 46.4166 69.4391 47.058V48.6941L65.6281 50.6745C65.183 50.9064 64.8134 51.2399 64.5562 51.6415C64.2991 52.0431 64.1635 52.4987 64.1631 52.9626V54.096C66.4297 55.6764 69.213 56.5337 72.0771 56.5337C74.9412 56.5337 77.7245 55.6764 79.9911 54.096V52.9626C79.9914 52.4986 79.8561 52.0428 79.5989 51.6411C79.3417 51.2393 78.9716 50.9059 78.5261 50.6745Z" fill="#263238"/>
<path d="M57.5432 79.6155C57.4558 79.6144 57.3723 79.5827 57.3103 79.5271C57.2771 79.5003 57.2506 79.4674 57.2326 79.4307C57.2145 79.3939 57.2053 79.3541 57.2057 79.3139C57.2067 79.2589 57.2242 79.2052 57.2563 79.1585L57.8639 78.281L56.6791 78.3145C56.6344 78.3171 56.5897 78.311 56.5478 78.2969C56.5059 78.2827 56.4678 78.2607 56.436 78.2323C56.381 78.1765 56.3506 78.1044 56.3506 78.0297C56.3506 77.955 56.381 77.8829 56.436 77.8271C56.4671 77.7976 56.505 77.7747 56.547 77.76C56.589 77.7452 56.6341 77.739 56.6791 77.7418L57.847 77.7814L57.2462 76.9069C57.2135 76.8593 57.196 76.8045 57.1955 76.7485C57.1952 76.7083 57.2044 76.6685 57.2224 76.6317C57.2405 76.5949 57.267 76.5621 57.3002 76.5352C57.3622 76.4797 57.4457 76.448 57.5331 76.4469C57.5906 76.4472 57.6468 76.4623 57.6952 76.4903C57.7437 76.5184 57.7822 76.5583 57.8065 76.6053L58.3837 77.5468L58.9542 76.6114C58.9813 76.5615 59.0229 76.5192 59.0747 76.4892C59.1265 76.4591 59.1864 76.4424 59.2479 76.4408C59.2905 76.441 59.3327 76.4493 59.3716 76.465C59.4106 76.4807 59.4454 76.5036 59.474 76.5322C59.536 76.5902 59.57 76.668 59.5686 76.7485C59.5684 76.8009 59.5533 76.8523 59.5247 76.8978L58.9137 77.7814L60.0985 77.7418C60.1435 77.739 60.1886 77.7452 60.2306 77.76C60.2726 77.7747 60.3105 77.7976 60.3416 77.8271C60.3991 77.881 60.4307 77.9533 60.4293 78.0282C60.4291 78.1037 60.3978 78.1764 60.3416 78.2323C60.3098 78.2607 60.2717 78.2827 60.2298 78.2969C60.1879 78.311 60.1432 78.3171 60.0985 78.3145L58.907 78.281L59.5011 79.1494C59.5343 79.1978 59.5519 79.2538 59.5517 79.3108C59.5517 79.3916 59.5161 79.4691 59.4528 79.5263C59.3895 79.5834 59.3037 79.6155 59.2141 79.6155C59.1563 79.6148 59.0999 79.5989 59.0519 79.5696C59.0039 79.5404 58.9664 79.4992 58.9441 79.451L58.3804 78.537L57.82 79.451C57.7952 79.4988 57.7562 79.5394 57.7073 79.5684C57.6585 79.5975 57.6017 79.6138 57.5432 79.6155Z" fill="#263238"/>
<path d="M63.0189 79.6155C62.9315 79.6144 62.848 79.5827 62.786 79.5271C62.7528 79.5003 62.7263 79.4675 62.7082 79.4307C62.6902 79.3939 62.681 79.3541 62.6813 79.3139C62.6824 79.2589 62.6999 79.2052 62.732 79.1585L63.3396 78.281L62.1581 78.3145C62.113 78.3164 62.068 78.3101 62.0257 78.2959C61.9834 78.2818 61.9446 78.2602 61.9117 78.2323C61.8669 78.1906 61.837 78.1376 61.826 78.0804C61.815 78.0231 61.8233 77.9642 61.8499 77.9113C61.8765 77.8584 61.9201 77.8139 61.9751 77.7837C62.0301 77.7534 62.0938 77.7388 62.1581 77.7418L63.3227 77.7814L62.7218 76.9069C62.6892 76.8593 62.6716 76.8045 62.6712 76.7485C62.6709 76.7083 62.6801 76.6685 62.6981 76.6317C62.7161 76.5949 62.7426 76.5621 62.7759 76.5352C62.8379 76.4797 62.9214 76.448 63.0088 76.4469C63.0663 76.4472 63.1225 76.4623 63.1709 76.4903C63.2193 76.5184 63.2579 76.5583 63.2822 76.6053L63.8594 77.5468L64.4299 76.6114C64.4569 76.5615 64.4986 76.5192 64.5504 76.4892C64.6021 76.4591 64.662 76.4424 64.7236 76.4408C64.7663 76.4406 64.8086 76.4487 64.8476 76.4645C64.8866 76.4802 64.9214 76.5033 64.9497 76.5322C64.981 76.5607 65.0058 76.5944 65.0226 76.6316C65.0394 76.6687 65.0479 76.7084 65.0476 76.7485C65.0464 76.8011 65.0301 76.8526 65.0003 76.8978L64.3894 77.7814L65.5776 77.7479C65.622 77.7451 65.6666 77.7514 65.708 77.7661C65.7495 77.7809 65.7868 77.8038 65.8172 77.8332C65.8748 77.8871 65.9063 77.9594 65.905 78.0342C65.9048 78.1098 65.8735 78.1825 65.8172 78.2384C65.7861 78.2667 65.7486 78.2887 65.7073 78.3029C65.6659 78.3171 65.6217 78.3231 65.5776 78.3206L64.3826 78.2871L64.9767 79.1554C65.01 79.2039 65.0276 79.2599 65.0274 79.3169C65.0274 79.3977 64.9918 79.4752 64.9285 79.5324C64.8652 79.5895 64.7793 79.6216 64.6898 79.6216C64.6319 79.6209 64.5755 79.605 64.5276 79.5757C64.4796 79.5465 64.4421 79.5053 64.4198 79.4571L63.856 78.543L63.2957 79.4571C63.2699 79.5037 63.2305 79.5431 63.1817 79.571C63.1329 79.599 63.0766 79.6143 63.0189 79.6155Z" fill="#263238"/>
<path d="M68.4974 79.6155C68.4089 79.6152 68.324 79.5834 68.2611 79.5271C68.2279 79.5003 68.2014 79.4675 68.1834 79.4307C68.1653 79.3939 68.1562 79.3541 68.1565 79.3139C68.1575 79.2589 68.175 79.2052 68.2071 79.1585L68.8147 78.281L67.6333 78.3145C67.5696 78.3168 67.5067 78.302 67.4525 78.2719C67.3982 78.2418 67.3552 78.1978 67.3287 78.1455C67.3023 78.0932 67.2937 78.035 67.3041 77.9783C67.3144 77.9216 67.3432 77.8689 67.3869 77.8271C67.4187 77.7977 67.4573 77.7749 67.4998 77.7602C67.5423 77.7455 67.5878 77.7392 67.6333 77.7418L68.7978 77.7814L68.197 76.9069C68.1643 76.8593 68.1468 76.8045 68.1464 76.7485C68.1474 76.7085 68.1572 76.6691 68.1752 76.6325C68.1931 76.5959 68.2189 76.5628 68.251 76.5352C68.3139 76.479 68.3987 76.4472 68.4873 76.4469C68.5442 76.4478 68.5997 76.4631 68.6475 76.4912C68.6952 76.5192 68.7333 76.5587 68.7573 76.6053L69.3346 77.5468L69.905 76.6114C69.9321 76.5615 69.9738 76.5192 70.0255 76.4892C70.0773 76.4591 70.1372 76.4424 70.1987 76.4408C70.2414 76.4406 70.2837 76.4487 70.3227 76.4645C70.3617 76.4802 70.3965 76.5033 70.4249 76.5322C70.4561 76.5607 70.4809 76.5944 70.4977 76.6316C70.5145 76.6687 70.523 76.7084 70.5228 76.7485C70.5215 76.8011 70.5053 76.8526 70.4755 76.8978L69.8645 77.7814L71.0527 77.7418C71.0964 77.7378 71.1405 77.7424 71.1821 77.7551C71.2237 77.7678 71.2617 77.7885 71.2937 77.8156C71.3257 77.8428 71.3509 77.8758 71.3675 77.9124C71.3842 77.9491 71.3919 77.9886 71.3903 78.0282C71.391 78.1033 71.3609 78.176 71.3059 78.2323C71.2741 78.2607 71.236 78.2827 71.1941 78.2969C71.1522 78.3111 71.1075 78.3171 71.0628 78.3145L69.8713 78.281L70.462 79.1494C70.4953 79.1978 70.5128 79.2538 70.5126 79.3108C70.5116 79.3508 70.5018 79.3903 70.4838 79.4269C70.4659 79.4635 70.4401 79.4965 70.408 79.5241C70.3786 79.5526 70.3431 79.5754 70.3037 79.5911C70.2642 79.6069 70.2216 79.6152 70.1784 79.6155C70.121 79.6146 70.0652 79.5985 70.0178 79.5693C69.9704 79.5401 69.9335 79.4989 69.9118 79.451L69.3447 78.537L68.7843 79.451C68.7591 79.5004 68.7186 79.5422 68.6677 79.5713C68.6168 79.6005 68.5577 79.6158 68.4974 79.6155Z" fill="#263238"/>
<path d="M73.9724 79.6155C73.8838 79.6152 73.799 79.5834 73.7361 79.5271C73.6725 79.4709 73.6361 79.3942 73.6348 79.3139C73.6338 79.2591 73.6502 79.2051 73.6821 79.1585L74.2897 78.281L73.1082 78.3145C73.0632 78.3164 73.0181 78.3101 72.9758 78.2959C72.9335 78.2818 72.8947 78.2602 72.8618 78.2323C72.8068 78.1765 72.7764 78.1044 72.7764 78.0297C72.7764 77.955 72.8068 77.8829 72.8618 77.8271C72.8944 77.7986 72.9331 77.7764 72.9754 77.7618C73.0177 77.7471 73.0629 77.7403 73.1082 77.7418L74.2762 77.7814L73.6787 76.9069C73.646 76.8593 73.6285 76.8045 73.6281 76.7485C73.6291 76.7085 73.6389 76.6691 73.6569 76.6325C73.6748 76.5959 73.7006 76.5628 73.7327 76.5352C73.7956 76.479 73.8804 76.4472 73.969 76.4469C74.0265 76.4472 74.0828 76.4623 74.1312 76.4903C74.1796 76.5184 74.2181 76.5583 74.2424 76.6053L74.8163 77.5468L75.3867 76.6114C75.4138 76.5615 75.4555 76.5192 75.5072 76.4892C75.559 76.4591 75.6189 76.4424 75.6804 76.4408C75.7231 76.4406 75.7654 76.4487 75.8044 76.4645C75.8434 76.4802 75.8783 76.5033 75.9066 76.5322C75.9379 76.5607 75.9626 76.5944 75.9794 76.6316C75.9962 76.6687 76.0047 76.7084 76.0045 76.7485C76.0033 76.8011 75.987 76.8526 75.9572 76.8978L75.3462 77.7814L76.5344 77.7418C76.5781 77.7378 76.6222 77.7424 76.6638 77.7551C76.7054 77.7678 76.7434 77.7885 76.7754 77.8156C76.8074 77.8428 76.8326 77.8758 76.8492 77.9124C76.8659 77.9491 76.8737 77.9886 76.872 78.0282C76.8727 78.1033 76.8426 78.176 76.7876 78.2323C76.7558 78.2607 76.7177 78.2827 76.6758 78.2969C76.6339 78.3111 76.5892 78.3171 76.5446 78.3145L75.353 78.281L75.9437 79.1494C75.977 79.1978 75.9945 79.2538 75.9943 79.3108C75.9947 79.351 75.9855 79.3909 75.9675 79.4276C75.9494 79.4644 75.9229 79.4973 75.8897 79.5241C75.8603 79.5526 75.8248 79.5754 75.7854 79.5911C75.7459 79.6069 75.7033 79.6152 75.6602 79.6155C75.6028 79.6146 75.5469 79.5985 75.4995 79.5693C75.4521 79.5401 75.4153 79.4989 75.3935 79.451L74.8264 78.537L74.2661 79.451C74.2403 79.5013 74.1988 79.5438 74.1466 79.573C74.0944 79.6022 74.0338 79.617 73.9724 79.6155Z" fill="#263238"/>
<path d="M79.447 79.6155C79.3584 79.6152 79.2736 79.5834 79.2107 79.5271C79.1584 79.4793 79.1251 79.4173 79.1159 79.3506C79.1068 79.2839 79.1223 79.2164 79.1601 79.1585L79.7643 78.281L78.5828 78.3145C78.5378 78.3164 78.4927 78.3101 78.4504 78.2959C78.4081 78.2818 78.3693 78.2602 78.3364 78.2323C78.2814 78.1765 78.251 78.1044 78.251 78.0297C78.251 77.955 78.2814 77.8829 78.3364 77.8271C78.369 77.7986 78.4077 77.7764 78.45 77.7618C78.4924 77.7471 78.5375 77.7403 78.5828 77.7418L79.7508 77.7814L79.1499 76.907C79.1172 76.8593 79.0997 76.8045 79.0993 76.7485C79.1006 76.6682 79.137 76.5915 79.2006 76.5352C79.2634 76.479 79.3483 76.4472 79.4369 76.4469C79.4944 76.4472 79.5506 76.4623 79.599 76.4903C79.6474 76.5184 79.686 76.5583 79.7103 76.6053L80.2841 77.5468L80.8546 76.6114C80.8817 76.5615 80.9233 76.5192 80.9751 76.4892C81.0269 76.4591 81.0867 76.4424 81.1483 76.4408C81.1915 76.4406 81.2343 76.4486 81.2739 76.4644C81.3134 76.4801 81.3488 76.5033 81.3778 76.5322C81.4398 76.5902 81.4737 76.668 81.4723 76.7485C81.4711 76.8011 81.4548 76.8526 81.4251 76.8978L80.8141 77.7814L82.0023 77.7418C82.046 77.7378 82.0901 77.7424 82.1317 77.7551C82.1732 77.7678 82.2113 77.7885 82.2433 77.8156C82.2753 77.8428 82.3004 77.8758 82.3171 77.9124C82.3338 77.9491 82.3415 77.9886 82.3398 78.0282C82.3406 78.1033 82.3105 78.176 82.2555 78.2323C82.2237 78.2607 82.1856 78.2827 82.1437 78.2969C82.1018 78.3111 82.0571 78.3171 82.0124 78.3145L80.8208 78.281L81.4116 79.1494C81.4449 79.1978 81.4624 79.2538 81.4622 79.3108C81.4625 79.351 81.4534 79.3909 81.4353 79.4276C81.4173 79.4644 81.3908 79.4973 81.3576 79.5241C81.3282 79.5526 81.2927 79.5754 81.2532 79.5911C81.2138 79.6069 81.1712 79.6152 81.128 79.6155C81.0706 79.6146 81.0148 79.5985 80.9674 79.5693C80.92 79.5401 80.8831 79.4989 80.8614 79.451L80.2943 78.537L79.7339 79.451C79.7086 79.5004 79.6681 79.5422 79.6173 79.5713C79.5664 79.6005 79.5073 79.6158 79.447 79.6155Z" fill="#263238"/>
<path d="M84.9224 79.6155C84.835 79.6144 84.7516 79.5827 84.6895 79.5271C84.6563 79.5003 84.6298 79.4675 84.6118 79.4307C84.5937 79.3939 84.5845 79.3541 84.5849 79.3139C84.5859 79.2589 84.6034 79.2052 84.6355 79.1585L85.2397 78.281L84.0583 78.3145C84.0148 78.3175 83.9712 78.3123 83.9301 78.2992C83.889 78.2861 83.8514 78.2654 83.8196 78.2385C83.7879 78.2115 83.7627 78.1789 83.7457 78.1427C83.7286 78.1065 83.7201 78.0675 83.7207 78.0282C83.7205 77.9909 83.7285 77.9539 83.7441 77.9194C83.7597 77.8849 83.7828 77.8535 83.8119 77.8271C83.843 77.7976 83.8809 77.7747 83.9229 77.76C83.9649 77.7452 84.0099 77.739 84.0549 77.7418L85.2229 77.7814L84.622 76.907C84.5893 76.8593 84.5718 76.8045 84.5714 76.7485C84.5726 76.6682 84.609 76.5915 84.6726 76.5352C84.7355 76.479 84.8204 76.4472 84.9089 76.4469C84.9664 76.4472 85.0227 76.4623 85.0711 76.4903C85.1195 76.5184 85.1581 76.5583 85.1823 76.6053L85.7562 77.5468L86.33 76.6114C86.3568 76.562 86.398 76.52 86.4491 76.4899C86.5002 76.4599 86.5594 76.4429 86.6203 76.4408C86.6636 76.4406 86.7064 76.4486 86.7459 76.4644C86.7855 76.4801 86.8209 76.5033 86.8499 76.5322C86.9118 76.5902 86.9458 76.668 86.9444 76.7485C86.9442 76.8009 86.9291 76.8523 86.9005 76.8978L86.2895 77.7814L87.4744 77.7418C87.5193 77.739 87.5644 77.7452 87.6064 77.76C87.6484 77.7747 87.6863 77.7976 87.7174 77.8271C87.7749 77.881 87.8065 77.9533 87.8052 78.0282C87.8049 78.1037 87.7737 78.1764 87.7174 78.2323C87.6856 78.2607 87.6475 78.2827 87.6056 78.2969C87.5637 78.3111 87.519 78.3171 87.4744 78.3145L86.2828 78.281L86.8735 79.1494C86.9068 79.1978 86.9243 79.2538 86.9241 79.3108C86.9229 79.3912 86.8865 79.4678 86.8229 79.5241C86.7614 79.5808 86.6778 79.6136 86.59 79.6155C86.5326 79.6146 86.4767 79.5985 86.4293 79.5693C86.3819 79.5401 86.3451 79.4989 86.3233 79.451L85.7562 78.537L85.1959 79.451C85.1716 79.4985 85.1332 79.5391 85.0849 79.5681C85.0366 79.5972 84.9804 79.6136 84.9224 79.6155Z" fill="#263238"/>
<g style="mix-blend-mode:multiply">
<path d="M101.952 17.8917H42.1982V21.2705H101.952V17.8917Z" fill="#92E3A9"/>
</g>
<path d="M78.5727 11.6672H65.5768C65.3422 11.6672 65.1173 11.5831 64.9514 11.4334C64.7856 11.2837 64.6924 11.0806 64.6924 10.8689C64.6924 10.6572 64.7856 10.4542 64.9514 10.3045C65.1173 10.1548 65.3422 10.0707 65.5768 10.0707H78.5727C78.8073 10.0707 79.0322 10.1548 79.1981 10.3045C79.3639 10.4542 79.4571 10.6572 79.4571 10.8689C79.4571 11.0806 79.3639 11.2837 79.1981 11.4334C79.0322 11.5831 78.8073 11.6672 78.5727 11.6672Z" fill="#92E3A9" stroke="#263238" stroke-width="1.33739" stroke-linecap="round" stroke-linejoin="round"/>
<path d="M75.6199 109.964C75.6206 109.331 75.4132 108.712 75.024 108.186C74.6348 107.659 74.0813 107.249 73.4335 107.006C72.7857 106.763 72.0728 106.7 71.385 106.823C70.6971 106.947 70.0653 107.251 69.5694 107.699C69.0735 108.146 68.7358 108.717 68.5992 109.338C68.4625 109.958 68.533 110.602 68.8017 111.187C69.0704 111.771 69.5252 112.271 70.1086 112.622C70.6919 112.973 71.3777 113.161 72.079 113.16C73.0178 113.159 73.918 112.822 74.5818 112.223C75.2457 111.624 75.619 110.811 75.6199 109.964Z" fill="#92E3A9"/>
<path d="M73.8748 108.343H70.2832V111.585H73.8748V108.343Z" fill="#92E3A9" stroke="#263238" stroke-width="1.33739" stroke-linecap="round" stroke-linejoin="round"/>
<path d="M114.86 73.1777C114.86 73.1777 110.154 62.3862 114.344 61.1035C118.705 59.766 118.512 66.8923 118.344 70.3656C117.989 77.7874 117.081 79.1676 116.403 77.3548L114.86 73.1777ZM113.446 81.5958C114.739 83.1192 115.103 81.541 112.771 74.4147C111.677 71.0633 109.3 64.2843 105.655 66.8283C102.154 69.2657 110.485 78.1012 110.485 78.1012L113.446 81.5958ZM110.948 87.7807C112.18 88.7679 112.203 87.5217 109.277 82.3758C107.903 79.9658 104.997 75.088 102.617 77.501C100.332 79.8287 108.119 85.4865 108.119 85.4865L110.948 87.7807ZM108.247 95.1355C109.479 96.1257 109.503 94.8766 106.576 89.7337C105.203 87.3237 102.296 82.4428 99.9164 84.8589C97.6447 87.1927 105.408 92.8505 105.408 92.8505L108.247 95.1355ZM116.045 80.1639C114.074 80.8585 115.64 81.6141 123.873 81.5928C127.734 81.5928 135.62 81.4344 133.939 77.562C132.329 73.8419 120.602 78.5796 120.602 78.5796L116.045 80.1639ZM113.8 85.1118C111.714 85.4378 113.084 86.4615 121.159 87.9178C124.943 88.6033 132.703 89.8677 131.91 85.7851C131.151 81.8487 118.614 84.3897 118.614 84.3897L113.8 85.1118ZM111.289 91.1535C109.513 91.385 110.647 92.2777 117.436 93.6792C120.619 94.3373 127.15 95.5712 126.583 92.0888C126.043 88.7374 115.376 90.6325 115.376 90.6325L111.289 91.1535ZM109.381 96.7503C107.643 97.1494 108.875 97.9294 115.795 98.6728C119.036 99.0201 125.675 99.6234 124.707 96.2141C123.772 92.9419 113.388 95.8393 113.388 95.8393L109.381 96.7503ZM119.555 74.0917C118.543 76.1391 120.646 75.8284 127.795 70.198C131.144 67.5565 137.861 62.0297 132.541 59.2785C127.434 56.6339 121.942 69.3937 121.942 69.3937L119.555 74.0917ZM109.645 104.041C108.575 104.605 109.625 104.824 114.533 103.941C116.835 103.529 121.517 102.615 119.934 100.812C118.401 99.075 112.122 102.731 112.122 102.731L109.645 104.041Z" fill="#92E3A9"/>
<path opacity="0.3" d="M114.86 73.1777C114.86 73.1777 110.154 62.3862 114.344 61.1035C118.705 59.766 118.512 66.8923 118.344 70.3656C117.989 77.7874 117.081 79.1676 116.403 77.3548L114.86 73.1777ZM113.446 81.5958C114.739 83.1192 115.103 81.541 112.771 74.4147C111.677 71.0633 109.3 64.2843 105.655 66.8283C102.154 69.2657 110.485 78.1012 110.485 78.1012L113.446 81.5958ZM110.948 87.7807C112.18 88.7679 112.203 87.5217 109.277 82.3758C107.903 79.9658 104.997 75.088 102.617 77.501C100.332 79.8287 108.119 85.4865 108.119 85.4865L110.948 87.7807ZM108.247 95.1355C109.479 96.1257 109.503 94.8766 106.576 89.7337C105.203 87.3237 102.296 82.4428 99.9164 84.8589C97.6447 87.1927 105.408 92.8505 105.408 92.8505L108.247 95.1355ZM116.045 80.1639C114.074 80.8585 115.64 81.6141 123.873 81.5928C127.734 81.5928 135.62 81.4344 133.939 77.562C132.329 73.8419 120.602 78.5796 120.602 78.5796L116.045 80.1639ZM113.8 85.1118C111.714 85.4378 113.084 86.4615 121.159 87.9178C124.943 88.6033 132.703 89.8677 131.91 85.7851C131.151 81.8487 118.614 84.3897 118.614 84.3897L113.8 85.1118ZM111.289 91.1535C109.513 91.385 110.647 92.2777 117.436 93.6792C120.619 94.3373 127.15 95.5712 126.583 92.0888C126.043 88.7374 115.376 90.6325 115.376 90.6325L111.289 91.1535ZM109.381 96.7503C107.643 97.1494 108.875 97.9294 115.795 98.6728C119.036 99.0201 125.675 99.6234 124.707 96.2141C123.772 92.9419 113.388 95.8393 113.388 95.8393L109.381 96.7503ZM119.555 74.0917C118.543 76.1391 120.646 75.8284 127.795 70.198C131.144 67.5565 137.861 62.0297 132.541 59.2785C127.434 56.6339 121.942 69.3937 121.942 69.3937L119.555 74.0917ZM109.645 104.041C108.575 104.605 109.625 104.824 114.533 103.941C116.835 103.529 121.517 102.615 119.934 100.812C118.401 99.075 112.122 102.731 112.122 102.731L109.645 104.041Z" fill="white"/>
<path d="M116.935 78.2018L116.115 65.8838L116.935 78.2018ZM114.34 82.2661L109.155 71.6726L114.34 82.2661ZM127.72 79.1859L115.295 80.7945L127.72 79.1859ZM111.653 87.9757L104.925 80.1852L111.653 87.9757ZM112.834 85.5871L122.103 86.0075L112.834 85.5871ZM110.64 91.5617L117.729 92.1954L110.64 91.5617ZM108.929 95.3579L105.408 90.5776L108.929 95.3579ZM108.524 97.0458L116.858 97.1159L108.524 97.0458ZM106.836 111.158C106.892 111.154 106.944 111.131 106.98 111.093C107.017 111.054 107.035 111.005 107.032 110.954C106.502 103.77 109.58 92.0035 114.519 82.3453C117.675 76.1726 130.046 64.0405 130.178 63.9186C130.218 63.8827 130.24 63.8339 130.24 63.7831C130.24 63.7322 130.218 63.6835 130.178 63.6475C130.158 63.6298 130.135 63.6158 130.11 63.6062C130.084 63.5966 130.057 63.5917 130.029 63.5917C130.002 63.5917 129.974 63.5966 129.949 63.6062C129.923 63.6158 129.9 63.6298 129.881 63.6475C129.756 63.7694 117.334 75.9472 114.151 82.1747C109.121 92.0675 106.083 103.621 106.623 110.979C106.627 111.027 106.651 111.072 106.691 111.106C106.73 111.139 106.782 111.158 106.836 111.158ZM116.932 78.3906C116.988 78.3875 117.04 78.3646 117.077 78.327C117.115 78.2894 117.134 78.24 117.131 78.1896L116.324 65.8655C116.323 65.8404 116.316 65.8158 116.304 65.7931C116.292 65.7705 116.276 65.7502 116.255 65.7334C116.234 65.7167 116.21 65.7038 116.184 65.6957C116.157 65.6875 116.129 65.6841 116.102 65.6858C116.046 65.6889 115.994 65.7118 115.956 65.7494C115.919 65.787 115.9 65.8364 115.903 65.8868L116.723 78.2048C116.725 78.2533 116.749 78.299 116.788 78.3325C116.827 78.366 116.878 78.3846 116.932 78.3846V78.3906ZM114.414 82.4398C114.464 82.4191 114.504 82.3814 114.524 82.3347C114.544 82.288 114.544 82.2361 114.522 82.1899L109.334 71.5964C109.311 71.5504 109.27 71.5142 109.218 71.4959C109.166 71.4777 109.108 71.4787 109.057 71.4989C109.006 71.5191 108.966 71.5568 108.946 71.6037C108.925 71.6505 108.926 71.7027 108.949 71.7488L114.134 82.3423C114.15 82.3763 114.177 82.4053 114.211 82.4258C114.245 82.4464 114.285 82.4576 114.326 82.458C114.361 82.4597 114.396 82.4534 114.427 82.4398H114.414ZM115.312 80.9773L127.731 79.3747C127.761 79.3742 127.79 79.3679 127.817 79.3563C127.844 79.3447 127.868 79.3281 127.888 79.3075C127.907 79.2869 127.922 79.2629 127.93 79.2369C127.939 79.2109 127.941 79.1836 127.937 79.1568C127.933 79.13 127.922 79.1042 127.907 79.0812C127.891 79.0583 127.87 79.0386 127.845 79.0235C127.82 79.0084 127.792 78.9982 127.762 78.9937C127.732 78.9891 127.702 78.9902 127.673 78.997L115.254 80.5995C115.199 80.6028 115.147 80.6258 115.11 80.6635C115.074 80.7012 115.055 80.7505 115.059 80.8006C115.062 80.8507 115.088 80.8975 115.129 80.9306C115.171 80.9638 115.226 80.9806 115.281 80.9773H115.312ZM111.771 88.128C111.815 88.0968 111.844 88.0511 111.851 88.0009C111.857 87.9507 111.842 87.9 111.808 87.8599L105.077 80.0542C105.043 80.0138 104.992 79.9874 104.936 79.9808C104.88 79.9742 104.823 79.988 104.778 80.0191C104.734 80.0502 104.704 80.0961 104.697 80.1467C104.69 80.1973 104.705 80.2484 104.74 80.2888L111.484 88.1067C111.503 88.1295 111.529 88.1479 111.557 88.1606C111.586 88.1732 111.617 88.1798 111.649 88.1798C111.7 88.1776 111.748 88.1592 111.784 88.128H111.771ZM122.289 86.0166C122.291 85.9662 122.271 85.9172 122.233 85.8801C122.195 85.8431 122.142 85.821 122.087 85.8186L112.834 85.3951C112.782 85.3983 112.733 85.4187 112.697 85.4523C112.66 85.4859 112.639 85.5304 112.636 85.5774C112.634 85.6244 112.651 85.6706 112.683 85.7072C112.716 85.7438 112.762 85.7682 112.814 85.7759L122.083 86.1994C122.139 86.2011 122.193 86.1829 122.234 86.1486C122.275 86.1144 122.3 86.067 122.303 86.0166H122.289ZM117.924 92.2137C117.928 92.1886 117.925 92.1632 117.918 92.139C117.91 92.1148 117.897 92.0922 117.879 92.0726C117.862 92.053 117.84 92.0368 117.815 92.0249C117.79 92.013 117.763 92.0057 117.735 92.0035L110.647 91.3728C110.619 91.3703 110.591 91.3727 110.565 91.3799C110.539 91.3872 110.514 91.3991 110.493 91.4149C110.471 91.4308 110.454 91.4503 110.441 91.4724C110.428 91.4944 110.42 91.5186 110.417 91.5434C110.413 91.5934 110.43 91.6431 110.465 91.6818C110.5 91.7205 110.551 91.7452 110.606 91.7506L117.695 92.3843H117.715C117.77 92.3877 117.823 92.3718 117.865 92.3399C117.907 92.308 117.933 92.2628 117.938 92.2137H117.924ZM109.03 95.5164C109.077 95.4884 109.109 95.4448 109.121 95.3951C109.132 95.3455 109.121 95.2938 109.091 95.2513L105.587 90.471C105.555 90.4298 105.506 90.4014 105.452 90.3918C105.397 90.3821 105.34 90.3919 105.293 90.4192C105.246 90.4471 105.214 90.4907 105.202 90.5404C105.191 90.5901 105.202 90.6418 105.232 90.6842L108.736 95.4646C108.756 95.4907 108.783 95.5121 108.814 95.5269C108.845 95.5418 108.88 95.5497 108.915 95.5499C108.961 95.5521 109.006 95.5403 109.043 95.5164H109.03ZM117.07 97.1159C117.07 97.0658 117.047 97.0178 117.008 96.9821C116.969 96.9463 116.917 96.9255 116.861 96.924L108.527 96.8539C108.471 96.8539 108.418 96.8738 108.379 96.9092C108.34 96.9446 108.318 96.9927 108.318 97.0428C108.317 97.068 108.321 97.093 108.332 97.1165C108.342 97.14 108.357 97.1613 108.377 97.1793C108.396 97.1972 108.42 97.2114 108.446 97.2209C108.471 97.2305 108.499 97.2351 108.527 97.2347L116.861 97.3048C116.89 97.306 116.918 97.3021 116.945 97.2932C116.972 97.2843 116.996 97.2706 117.017 97.253C117.038 97.2354 117.054 97.2141 117.066 97.1906C117.077 97.167 117.084 97.1416 117.084 97.1159H117.07ZM105.887 108.364C105.904 108.331 107.325 104.797 111.599 103.953C111.654 103.942 111.702 103.912 111.732 103.869C111.762 103.826 111.773 103.774 111.761 103.724C111.747 103.676 111.713 103.633 111.666 103.607C111.619 103.58 111.562 103.571 111.508 103.581C107.001 104.471 105.506 108.203 105.489 108.24C105.472 108.288 105.476 108.34 105.5 108.385C105.525 108.431 105.568 108.466 105.621 108.483H105.688C105.733 108.487 105.778 108.477 105.816 108.456C105.855 108.434 105.884 108.402 105.901 108.364H105.887ZM106.836 111.158C106.892 111.154 106.944 111.131 106.98 111.093C107.017 111.054 107.035 111.005 107.032 110.954C106.502 103.77 109.58 92.0035 114.519 82.3453C117.675 76.1726 130.046 64.0405 130.178 63.9186C130.218 63.8827 130.24 63.8339 130.24 63.7831C130.24 63.7322 130.218 63.6835 130.178 63.6475C130.158 63.6298 130.135 63.6158 130.11 63.6062C130.084 63.5966 130.057 63.5917 130.029 63.5917C130.002 63.5917 129.974 63.5966 129.949 63.6062C129.923 63.6158 129.9 63.6298 129.881 63.6475C129.756 63.7694 117.334 75.9472 114.151 82.1747C109.121 92.0675 106.083 103.621 106.623 110.979C106.627 111.027 106.651 111.072 106.691 111.106C106.73 111.139 106.782 111.158 106.836 111.158ZM116.932 78.3906C116.988 78.3875 117.04 78.3646 117.077 78.327C117.115 78.2894 117.134 78.24 117.131 78.1896L116.324 65.8655C116.323 65.8404 116.316 65.8158 116.304 65.7931C116.292 65.7705 116.276 65.7502 116.255 65.7334C116.234 65.7167 116.21 65.7038 116.184 65.6957C116.157 65.6875 116.129 65.6841 116.102 65.6858C116.046 65.6889 115.994 65.7118 115.956 65.7494C115.919 65.787 115.9 65.8364 115.903 65.8868L116.723 78.2048C116.725 78.2533 116.749 78.299 116.788 78.3325C116.827 78.366 116.878 78.3846 116.932 78.3846V78.3906ZM114.414 82.4398C114.464 82.4191 114.504 82.3814 114.524 82.3347C114.544 82.288 114.544 82.2361 114.522 82.1899L109.334 71.5964C109.311 71.5504 109.27 71.5142 109.218 71.4959C109.166 71.4777 109.108 71.4787 109.057 71.4989C109.006 71.5191 108.966 71.5568 108.946 71.6037C108.925 71.6505 108.926 71.7027 108.949 71.7488L114.134 82.3423C114.15 82.3763 114.177 82.4053 114.211 82.4258C114.245 82.4464 114.285 82.4576 114.326 82.458C114.361 82.4597 114.396 82.4534 114.427 82.4398H114.414ZM115.312 80.9773L127.731 79.3747C127.761 79.3742 127.79 79.3679 127.817 79.3563C127.844 79.3447 127.868 79.3281 127.888 79.3075C127.907 79.2869 127.922 79.2629 127.93 79.2369C127.939 79.2109 127.941 79.1836 127.937 79.1568C127.933 79.13 127.922 79.1042 127.907 79.0812C127.891 79.0583 127.87 79.0386 127.845 79.0235C127.82 79.0084 127.792 78.9982 127.762 78.9937C127.732 78.9891 127.702 78.9902 127.673 78.997L115.254 80.5995C115.199 80.6028 115.147 80.6258 115.11 80.6635C115.074 80.7012 115.055 80.7505 115.059 80.8006C115.062 80.8507 115.088 80.8975 115.129 80.9306C115.171 80.9638 115.226 80.9806 115.281 80.9773H115.312ZM111.771 88.128C111.815 88.0968 111.844 88.0511 111.851 88.0009C111.857 87.9507 111.842 87.9 111.808 87.8599L105.077 80.0542C105.06 80.0342 105.039 80.0174 105.015 80.0048C104.99 79.9922 104.964 79.9841 104.936 79.9808C104.908 79.9776 104.88 79.9793 104.853 79.9858C104.826 79.9924 104.801 80.0037 104.778 80.0191C104.756 80.0345 104.738 80.0537 104.724 80.0756C104.71 80.0975 104.701 80.1217 104.697 80.1467C104.693 80.1717 104.695 80.1972 104.703 80.2215C104.71 80.2459 104.722 80.2688 104.74 80.2888L111.484 88.1067C111.503 88.1295 111.529 88.1479 111.557 88.1606C111.586 88.1732 111.617 88.1798 111.649 88.1798C111.7 88.1776 111.748 88.1592 111.784 88.128H111.771ZM122.289 86.0166C122.291 85.9662 122.271 85.9172 122.233 85.8801C122.195 85.8431 122.142 85.821 122.087 85.8186L112.834 85.3951C112.782 85.3983 112.733 85.4187 112.697 85.4523C112.66 85.4859 112.639 85.5304 112.636 85.5774C112.634 85.6244 112.651 85.6706 112.683 85.7072C112.716 85.7438 112.762 85.7682 112.814 85.7759L122.083 86.1994C122.139 86.2011 122.193 86.1829 122.234 86.1486C122.275 86.1144 122.3 86.067 122.303 86.0166H122.289ZM117.924 92.2137C117.928 92.1886 117.925 92.1632 117.918 92.139C117.91 92.1148 117.897 92.0922 117.879 92.0726C117.862 92.053 117.84 92.0368 117.815 92.0249C117.79 92.013 117.763 92.0057 117.735 92.0035L110.647 91.3728C110.619 91.3703 110.591 91.3727 110.565 91.3799C110.539 91.3872 110.514 91.3991 110.493 91.4149C110.471 91.4308 110.454 91.4503 110.441 91.4724C110.428 91.4944 110.42 91.5186 110.417 91.5434C110.413 91.5934 110.43 91.6431 110.465 91.6818C110.5 91.7205 110.551 91.7452 110.606 91.7506L117.695 92.3843H117.715C117.77 92.3877 117.823 92.3718 117.865 92.3399C117.907 92.308 117.933 92.2628 117.938 92.2137H117.924ZM109.03 95.5164C109.077 95.4884 109.109 95.4448 109.121 95.3951C109.132 95.3455 109.121 95.2938 109.091 95.2513L105.587 90.471C105.555 90.4298 105.506 90.4014 105.452 90.3918C105.397 90.3821 105.34 90.3919 105.293 90.4192C105.246 90.4471 105.214 90.4907 105.202 90.5404C105.191 90.5901 105.202 90.6418 105.232 90.6842L108.736 95.4646C108.756 95.4907 108.783 95.5121 108.814 95.5269C108.845 95.5418 108.88 95.5497 108.915 95.5499C108.961 95.5521 109.006 95.5403 109.043 95.5164H109.03ZM117.07 97.1159C117.07 97.0658 117.047 97.0178 117.008 96.9821C116.969 96.9463 116.917 96.9255 116.861 96.924L108.527 96.8539C108.471 96.8539 108.418 96.8738 108.379 96.9092C108.34 96.9446 108.318 96.9927 108.318 97.0428C108.317 97.068 108.321 97.093 108.332 97.1165C108.342 97.14 108.357 97.1613 108.377 97.1793C108.396 97.1972 108.42 97.2114 108.446 97.2209C108.471 97.2305 108.499 97.2351 108.527 97.2347L116.861 97.3048C116.89 97.306 116.918 97.3021 116.945 97.2932C116.972 97.2843 116.996 97.2706 117.017 97.253C117.038 97.2354 117.054 97.2141 117.066 97.1906C117.077 97.167 117.084 97.1416 117.084 97.1159H117.07ZM105.887 108.364C105.904 108.331 107.325 104.797 111.599 103.953C111.654 103.942 111.702 103.912 111.732 103.869C111.762 103.826 111.773 103.774 111.761 103.724C111.747 103.676 111.713 103.633 111.666 103.607C111.619 103.58 111.562 103.571 111.508 103.581C107.001 104.471 105.506 108.203 105.489 108.24C105.472 108.288 105.476 108.34 105.5 108.385C105.525 108.431 105.568 108.466 105.621 108.483H105.688C105.733 108.487 105.778 108.477 105.816 108.456C105.855 108.434 105.884 108.402 105.901 108.364H105.887Z" fill="#92E3A9"/>
<path opacity="0.2" d="M116.935 78.2018L116.115 65.8838L116.935 78.2018ZM114.34 82.2661L109.155 71.6726L114.34 82.2661ZM127.72 79.1859L115.295 80.7945L127.72 79.1859ZM111.653 87.9757L104.925 80.1852L111.653 87.9757ZM112.834 85.5871L122.103 86.0075L112.834 85.5871ZM110.64 91.5617L117.729 92.1954L110.64 91.5617ZM108.929 95.3579L105.408 90.5776L108.929 95.3579ZM108.524 97.0458L116.858 97.1159L108.524 97.0458ZM106.836 111.158C106.892 111.154 106.944 111.131 106.98 111.093C107.017 111.054 107.035 111.005 107.032 110.954C106.502 103.77 109.58 92.0035 114.519 82.3453C117.675 76.1726 130.046 64.0405 130.178 63.9186C130.218 63.8827 130.24 63.8339 130.24 63.7831C130.24 63.7322 130.218 63.6835 130.178 63.6475C130.158 63.6298 130.135 63.6158 130.11 63.6062C130.084 63.5966 130.057 63.5917 130.029 63.5917C130.002 63.5917 129.974 63.5966 129.949 63.6062C129.923 63.6158 129.9 63.6298 129.881 63.6475C129.756 63.7694 117.334 75.9472 114.151 82.1747C109.121 92.0675 106.083 103.621 106.623 110.979C106.627 111.027 106.651 111.072 106.691 111.106C106.73 111.139 106.782 111.158 106.836 111.158ZM116.932 78.3906C116.988 78.3875 117.04 78.3646 117.077 78.327C117.115 78.2894 117.134 78.24 117.131 78.1896L116.324 65.8655C116.323 65.8404 116.316 65.8158 116.304 65.7931C116.292 65.7705 116.276 65.7502 116.255 65.7334C116.234 65.7167 116.21 65.7038 116.184 65.6957C116.157 65.6875 116.129 65.6841 116.102 65.6858C116.046 65.6889 115.994 65.7118 115.956 65.7494C115.919 65.787 115.9 65.8364 115.903 65.8868L116.723 78.2048C116.725 78.2533 116.749 78.299 116.788 78.3325C116.827 78.366 116.878 78.3846 116.932 78.3846V78.3906ZM114.414 82.4398C114.464 82.4191 114.504 82.3814 114.524 82.3347C114.544 82.288 114.544 82.2361 114.522 82.1899L109.334 71.5964C109.311 71.5504 109.27 71.5142 109.218 71.4959C109.166 71.4777 109.108 71.4787 109.057 71.4989C109.006 71.5191 108.966 71.5568 108.946 71.6037C108.925 71.6505 108.926 71.7027 108.949 71.7488L114.134 82.3423C114.15 82.3763 114.177 82.4053 114.211 82.4258C114.245 82.4464 114.285 82.4576 114.326 82.458C114.361 82.4597 114.396 82.4534 114.427 82.4398H114.414ZM115.312 80.9773L127.731 79.3747C127.761 79.3742 127.79 79.3679 127.817 79.3563C127.844 79.3447 127.868 79.3281 127.888 79.3075C127.907 79.2869 127.922 79.2629 127.93 79.2369C127.939 79.2109 127.941 79.1836 127.937 79.1568C127.933 79.13 127.922 79.1042 127.907 79.0812C127.891 79.0583 127.87 79.0386 127.845 79.0235C127.82 79.0084 127.792 78.9982 127.762 78.9937C127.732 78.9891 127.702 78.9902 127.673 78.997L115.254 80.5995C115.199 80.6028 115.147 80.6258 115.11 80.6635C115.074 80.7012 115.055 80.7505 115.059 80.8006C115.062 80.8507 115.088 80.8975 115.129 80.9306C115.171 80.9638 115.226 80.9806 115.281 80.9773H115.312ZM111.771 88.128C111.815 88.0968 111.844 88.0511 111.851 88.0009C111.857 87.9507 111.842 87.9 111.808 87.8599L105.077 80.0542C105.043 80.0138 104.992 79.9874 104.936 79.9808C104.88 79.9742 104.823 79.988 104.778 80.0191C104.734 80.0502 104.704 80.0961 104.697 80.1467C104.69 80.1973 104.705 80.2484 104.74 80.2888L111.484 88.1067C111.503 88.1295 111.529 88.1479 111.557 88.1606C111.586 88.1732 111.617 88.1798 111.649 88.1798C111.7 88.1776 111.748 88.1592 111.784 88.128H111.771ZM122.289 86.0166C122.291 85.9662 122.271 85.9172 122.233 85.8801C122.195 85.8431 122.142 85.821 122.087 85.8186L112.834 85.3951C112.782 85.3983 112.733 85.4187 112.697 85.4523C112.66 85.4859 112.639 85.5304 112.636 85.5774C112.634 85.6244 112.651 85.6706 112.683 85.7072C112.716 85.7438 112.762 85.7682 112.814 85.7759L122.083 86.1994C122.139 86.2011 122.193 86.1829 122.234 86.1486C122.275 86.1144 122.3 86.067 122.303 86.0166H122.289ZM117.924 92.2137C117.928 92.1886 117.925 92.1632 117.918 92.139C117.91 92.1148 117.897 92.0922 117.879 92.0726C117.862 92.053 117.84 92.0368 117.815 92.0249C117.79 92.013 117.763 92.0057 117.735 92.0035L110.647 91.3728C110.619 91.3703 110.591 91.3727 110.565 91.3799C110.539 91.3872 110.514 91.3991 110.493 91.4149C110.471 91.4308 110.454 91.4503 110.441 91.4724C110.428 91.4944 110.42 91.5186 110.417 91.5434C110.413 91.5934 110.43 91.6431 110.465 91.6818C110.5 91.7205 110.551 91.7452 110.606 91.7506L117.695 92.3843H117.715C117.77 92.3877 117.823 92.3718 117.865 92.3399C117.907 92.308 117.933 92.2628 117.938 92.2137H117.924ZM109.03 95.5164C109.077 95.4884 109.109 95.4448 109.121 95.3951C109.132 95.3455 109.121 95.2938 109.091 95.2513L105.587 90.471C105.555 90.4298 105.506 90.4014 105.452 90.3918C105.397 90.3821 105.34 90.3919 105.293 90.4192C105.246 90.4471 105.214 90.4907 105.202 90.5404C105.191 90.5901 105.202 90.6418 105.232 90.6842L108.736 95.4646C108.756 95.4907 108.783 95.5121 108.814 95.5269C108.845 95.5418 108.88 95.5497 108.915 95.5499C108.961 95.5521 109.006 95.5403 109.043 95.5164H109.03ZM117.07 97.1159C117.07 97.0658 117.047 97.0178 117.008 96.9821C116.969 96.9463 116.917 96.9255 116.861 96.924L108.527 96.8539C108.471 96.8539 108.418 96.8738 108.379 96.9092C108.34 96.9446 108.318 96.9927 108.318 97.0428C108.317 97.068 108.321 97.093 108.332 97.1165C108.342 97.14 108.357 97.1613 108.377 97.1793C108.396 97.1972 108.42 97.2114 108.446 97.2209C108.471 97.2305 108.499 97.2351 108.527 97.2347L116.861 97.3048C116.89 97.306 116.918 97.3021 116.945 97.2932C116.972 97.2843 116.996 97.2706 117.017 97.253C117.038 97.2354 117.054 97.2141 117.066 97.1906C117.077 97.167 117.084 97.1416 117.084 97.1159H117.07ZM105.887 108.364C105.904 108.331 107.325 104.797 111.599 103.953C111.654 103.942 111.702 103.912 111.732 103.869C111.762 103.826 111.773 103.774 111.761 103.724C111.747 103.676 111.713 103.633 111.666 103.607C111.619 103.58 111.562 103.571 111.508 103.581C107.001 104.471 105.506 108.203 105.489 108.24C105.472 108.288 105.476 108.34 105.5 108.385C105.525 108.431 105.568 108.466 105.621 108.483H105.688C105.733 108.487 105.778 108.477 105.816 108.456C105.855 108.434 105.884 108.402 105.901 108.364H105.887ZM106.836 111.158C106.892 111.154 106.944 111.131 106.98 111.093C107.017 111.054 107.035 111.005 107.032 110.954C106.502 103.77 109.58 92.0035 114.519 82.3453C117.675 76.1726 130.046 64.0405 130.178 63.9186C130.218 63.8827 130.24 63.8339 130.24 63.7831C130.24 63.7322 130.218 63.6835 130.178 63.6475C130.158 63.6298 130.135 63.6158 130.11 63.6062C130.084 63.5966 130.057 63.5917 130.029 63.5917C130.002 63.5917 129.974 63.5966 129.949 63.6062C129.923 63.6158 129.9 63.6298 129.881 63.6475C129.756 63.7694 117.334 75.9472 114.151 82.1747C109.121 92.0675 106.083 103.621 106.623 110.979C106.627 111.027 106.651 111.072 106.691 111.106C106.73 111.139 106.782 111.158 106.836 111.158ZM116.932 78.3906C116.988 78.3875 117.04 78.3646 117.077 78.327C117.115 78.2894 117.134 78.24 117.131 78.1896L116.324 65.8655C116.323 65.8404 116.316 65.8158 116.304 65.7931C116.292 65.7705 116.276 65.7502 116.255 65.7334C116.234 65.7167 116.21 65.7038 116.184 65.6957C116.157 65.6875 116.129 65.6841 116.102 65.6858C116.046 65.6889 115.994 65.7118 115.956 65.7494C115.919 65.787 115.9 65.8364 115.903 65.8868L116.723 78.2048C116.725 78.2533 116.749 78.299 116.788 78.3325C116.827 78.366 116.878 78.3846 116.932 78.3846V78.3906ZM114.414 82.4398C114.464 82.4191 114.504 82.3814 114.524 82.3347C114.544 82.288 114.544 82.2361 114.522 82.1899L109.334 71.5964C109.311 71.5504 109.27 71.5142 109.218 71.4959C109.166 71.4777 109.108 71.4787 109.057 71.4989C109.006 71.5191 108.966 71.5568 108.946 71.6037C108.925 71.6505 108.926 71.7027 108.949 71.7488L114.134 82.3423C114.15 82.3763 114.177 82.4053 114.211 82.4258C114.245 82.4464 114.285 82.4576 114.326 82.458C114.361 82.4597 114.396 82.4534 114.427 82.4398H114.414ZM115.312 80.9773L127.731 79.3747C127.761 79.3742 127.79 79.3679 127.817 79.3563C127.844 79.3447 127.868 79.3281 127.888 79.3075C127.907 79.2869 127.922 79.2629 127.93 79.2369C127.939 79.2109 127.941 79.1836 127.937 79.1568C127.933 79.13 127.922 79.1042 127.907 79.0812C127.891 79.0583 127.87 79.0386 127.845 79.0235C127.82 79.0084 127.792 78.9982 127.762 78.9937C127.732 78.9891 127.702 78.9902 127.673 78.997L115.254 80.5995C115.199 80.6028 115.147 80.6258 115.11 80.6635C115.074 80.7012 115.055 80.7505 115.059 80.8006C115.062 80.8507 115.088 80.8975 115.129 80.9306C115.171 80.9638 115.226 80.9806 115.281 80.9773H115.312ZM111.771 88.128C111.815 88.0968 111.844 88.0511 111.851 88.0009C111.857 87.9507 111.842 87.9 111.808 87.8599L105.077 80.0542C105.06 80.0342 105.039 80.0174 105.015 80.0048C104.99 79.9922 104.964 79.9841 104.936 79.9808C104.908 79.9776 104.88 79.9793 104.853 79.9858C104.826 79.9924 104.801 80.0037 104.778 80.0191C104.756 80.0345 104.738 80.0537 104.724 80.0756C104.71 80.0975 104.701 80.1217 104.697 80.1467C104.693 80.1717 104.695 80.1972 104.703 80.2215C104.71 80.2459 104.722 80.2688 104.74 80.2888L111.484 88.1067C111.503 88.1295 111.529 88.1479 111.557 88.1606C111.586 88.1732 111.617 88.1798 111.649 88.1798C111.7 88.1776 111.748 88.1592 111.784 88.128H111.771ZM122.289 86.0166C122.291 85.9662 122.271 85.9172 122.233 85.8801C122.195 85.8431 122.142 85.821 122.087 85.8186L112.834 85.3951C112.782 85.3983 112.733 85.4187 112.697 85.4523C112.66 85.4859 112.639 85.5304 112.636 85.5774C112.634 85.6244 112.651 85.6706 112.683 85.7072C112.716 85.7438 112.762 85.7682 112.814 85.7759L122.083 86.1994C122.139 86.2011 122.193 86.1829 122.234 86.1486C122.275 86.1144 122.3 86.067 122.303 86.0166H122.289ZM117.924 92.2137C117.928 92.1886 117.925 92.1632 117.918 92.139C117.91 92.1148 117.897 92.0922 117.879 92.0726C117.862 92.053 117.84 92.0368 117.815 92.0249C117.79 92.013 117.763 92.0057 117.735 92.0035L110.647 91.3728C110.619 91.3703 110.591 91.3727 110.565 91.3799C110.539 91.3872 110.514 91.3991 110.493 91.4149C110.471 91.4308 110.454 91.4503 110.441 91.4724C110.428 91.4944 110.42 91.5186 110.417 91.5434C110.413 91.5934 110.43 91.6431 110.465 91.6818C110.5 91.7205 110.551 91.7452 110.606 91.7506L117.695 92.3843H117.715C117.77 92.3877 117.823 92.3718 117.865 92.3399C117.907 92.308 117.933 92.2628 117.938 92.2137H117.924ZM109.03 95.5164C109.077 95.4884 109.109 95.4448 109.121 95.3951C109.132 95.3455 109.121 95.2938 109.091 95.2513L105.587 90.471C105.555 90.4298 105.506 90.4014 105.452 90.3918C105.397 90.3821 105.34 90.3919 105.293 90.4192C105.246 90.4471 105.214 90.4907 105.202 90.5404C105.191 90.5901 105.202 90.6418 105.232 90.6842L108.736 95.4646C108.756 95.4907 108.783 95.5121 108.814 95.5269C108.845 95.5418 108.88 95.5497 108.915 95.5499C108.961 95.5521 109.006 95.5403 109.043 95.5164H109.03ZM117.07 97.1159C117.07 97.0658 117.047 97.0178 117.008 96.9821C116.969 96.9463 116.917 96.9255 116.861 96.924L108.527 96.8539C108.471 96.8539 108.418 96.8738 108.379 96.9092C108.34 96.9446 108.318 96.9927 108.318 97.0428C108.317 97.068 108.321 97.093 108.332 97.1165C108.342 97.14 108.357 97.1613 108.377 97.1793C108.396 97.1972 108.42 97.2114 108.446 97.2209C108.471 97.2305 108.499 97.2351 108.527 97.2347L116.861 97.3048C116.89 97.306 116.918 97.3021 116.945 97.2932C116.972 97.2843 116.996 97.2706 117.017 97.253C117.038 97.2354 117.054 97.2141 117.066 97.1906C117.077 97.167 117.084 97.1416 117.084 97.1159H117.07ZM105.887 108.364C105.904 108.331 107.325 104.797 111.599 103.953C111.654 103.942 111.702 103.912 111.732 103.869C111.762 103.826 111.773 103.774 111.761 103.724C111.747 103.676 111.713 103.633 111.666 103.607C111.619 103.58 111.562 103.571 111.508 103.581C107.001 104.471 105.506 108.203 105.489 108.24C105.472 108.288 105.476 108.34 105.5 108.385C105.525 108.431 105.568 108.466 105.621 108.483H105.688C105.733 108.487 105.778 108.477 105.816 108.456C105.855 108.434 105.884 108.402 105.901 108.364H105.887Z" fill="black"/>
<path d="M112.348 105.787H102.792V107.572H103.626L105.351 117.313H109.79L111.514 107.572H112.348V105.787Z" fill="#92E3A9"/>
<path opacity="0.3" d="M112.348 105.787H102.792V107.572H103.626L105.351 117.313H109.79L111.514 107.572H112.348V105.787Z" fill="white"/>
<path d="M26.3135 51.7988L15.1978 48.5236L14.2087 46.1654L11.9505 46.1014L7.85254 45.4007L8.34537 46.1654L13.5032 49.5442L14.7758 50.117L26.4013 55.5981L26.3135 51.7988Z" fill="white" stroke="#263238" stroke-width="1.00396" stroke-miterlimit="10"/>
<path d="M14.2086 46.1655L13.1487 45.5927L11.0322 46.2934L11.3833 46.6743L14.2086 46.1655Z" fill="white" stroke="#263238" stroke-width="1.00396" stroke-linejoin="round"/>
<path d="M26.3135 51.7988L15.1978 48.5236L14.2087 46.1654L11.9505 46.1014L7.85254 45.4007L8.34537 46.1654L13.5032 49.5442L14.7758 50.117L26.4013 55.5981L26.3135 51.7988Z" fill="white"/>
<mask id="mask0_19_1598" style="mask-type:luminance" maskUnits="userSpaceOnUse" x="7" y="45" width="20" height="11">
<path d="M26.3125 51.7989L15.1968 48.5237L14.2077 46.1655L11.9495 46.1015L7.85156 45.4008L8.34439 46.1655L13.5023 49.5443L14.7748 50.1171L26.4003 55.5982L26.3125 51.7989Z" fill="white"/>
</mask>
<g mask="url(#mask0_19_1598)">
<path opacity="0.5" d="M26.3125 51.7989L15.1968 48.5237L14.2077 46.1655L11.9495 46.1015L7.85156 45.4008L8.34439 46.1655L13.5023 49.5443L14.7748 50.1171L26.4003 55.5982L26.3125 51.7989Z" fill="#92E3A9" stroke="#263238" stroke-width="1.00396" stroke-miterlimit="10"/>
</g>
<path d="M26.3135 51.7988L15.1978 48.5236L14.2087 46.1654L11.9505 46.1014L7.85254 45.4007L8.34537 46.1654L13.5032 49.5442L14.7758 50.117L26.4013 55.5981L26.3135 51.7988Z" stroke="#263238" stroke-width="1.00396" stroke-miterlimit="10"/>
<path d="M14.2086 46.1655L13.1487 45.5927L11.0322 46.2934L11.3833 46.6743L14.2086 46.1655Z" fill="white"/>
<mask id="mask1_19_1598" style="mask-type:luminance" maskUnits="userSpaceOnUse" x="11" y="45" width="4" height="2">
<path d="M14.2086 46.1655L13.1487 45.5927L11.0322 46.2934L11.3833 46.6743L14.2086 46.1655Z" fill="white"/>
</mask>
<g mask="url(#mask1_19_1598)">
<path opacity="0.5" d="M14.2086 46.1655L13.1487 45.5927L11.0322 46.2934L11.3833 46.6743L14.2086 46.1655Z" fill="#92E3A9" stroke="#263238" stroke-width="1.00396" stroke-linejoin="round"/>
</g>
<path d="M14.2086 46.1655L13.1487 45.5927L11.0322 46.2934L11.3833 46.6743L14.2086 46.1655Z" stroke="#263238" stroke-width="1.00396" stroke-linejoin="round"/>
<path d="M28.6722 30.5417C28.6722 30.5417 28.5 31.9127 28.9287 32.7932C29.3574 33.6738 31.7372 36.6565 31.7372 36.6565L27.295 39.8708C27.295 39.8708 25.4519 36.5194 25.1009 35.9771C24.7498 35.4348 24.3279 33.101 25.4722 31.4283C26.6165 29.7557 28.2638 29.3047 28.6722 30.5417Z" fill="white"/>
<mask id="mask2_19_1598" style="mask-type:luminance" maskUnits="userSpaceOnUse" x="24" y="29" width="8" height="11">
<path d="M28.6732 30.5417C28.6732 30.5417 28.501 31.9128 28.9297 32.7933C29.3584 33.6738 31.7382 36.6565 31.7382 36.6565L27.2959 39.8708C27.2959 39.8708 25.4529 36.5194 25.1018 35.9771C24.7508 35.4348 24.3288 33.101 25.4731 31.4283C26.6175 29.7557 28.2647 29.3048 28.6732 30.5417Z" fill="white"/>
</mask>
<g mask="url(#mask2_19_1598)">
<g style="mix-blend-mode:multiply" opacity="0.5">
<path d="M26.3918 34.9473L28.3192 38.5546L27.293 39.8739L25.3555 36.751L26.3918 34.9473Z" fill="#92E3A9"/>
</g>
</g>
<path d="M28.6722 30.5417C28.6722 30.5417 28.5 31.9127 28.9287 32.7932C29.3574 33.6738 31.7372 36.6565 31.7372 36.6565L27.295 39.8708C27.295 39.8708 25.4519 36.5194 25.1009 35.9771C24.7498 35.4348 24.3279 33.101 25.4722 31.4283C26.6165 29.7557 28.2638 29.3047 28.6722 30.5417Z" stroke="#263238" stroke-width="1.00396" stroke-miterlimit="10"/>
<path d="M30.0496 28.0313C29.7761 26.5079 27.842 23.4094 24.7736 23.5282C22.782 23.6074 21.8503 23.97 20.9862 24.4118C20.2818 24.7864 19.6252 25.2298 19.0284 25.7341C17.5296 27.358 17.003 27.8028 17.2933 29.0459C17.2695 29.5417 17.3556 30.0368 17.5465 30.5022C18.0056 31.6082 18.3195 32.3303 18.7178 32.8573C18.5963 33.3722 18.279 34.7311 18.2621 35.0418C18.2452 35.3526 19.2748 35.1363 19.7946 35.0175C20.76 36.9674 22.5288 38.3201 23.079 38.4755C24.0377 38.7467 25.5533 37.3239 26.3567 36.2209C27.1601 35.118 26.5525 33.878 26.5559 33.3844C26.5592 32.8908 28.3618 31.8062 29.0301 31.4619C29.6985 31.1176 30.3196 29.5516 30.0496 28.0313Z" fill="white"/>
<mask id="mask3_19_1598" style="mask-type:luminance" maskUnits="userSpaceOnUse" x="17" y="23" width="14" height="16">
<path d="M30.0496 28.0313C29.7761 26.5079 27.842 23.4094 24.7736 23.5282C22.782 23.6074 21.8503 23.97 20.9862 24.4118C20.2818 24.7864 19.6252 25.2298 19.0284 25.7341C17.5296 27.358 17.003 27.8028 17.2933 29.0459C17.2695 29.5417 17.3556 30.0368 17.5465 30.5022C18.0056 31.6082 18.3195 32.3303 18.7178 32.8573C18.5963 33.3722 18.279 34.7311 18.2621 35.0418C18.2452 35.3526 19.2748 35.1363 19.7946 35.0175C20.76 36.9674 22.5288 38.3201 23.079 38.4755C24.0377 38.7467 25.5533 37.3239 26.3567 36.2209C27.1601 35.118 26.5525 33.878 26.5559 33.3844C26.5592 32.8908 28.3618 31.8062 29.0301 31.4619C29.6985 31.1176 30.3196 29.5516 30.0496 28.0313Z" fill="white"/>
</mask>
<g mask="url(#mask3_19_1598)">
<g style="mix-blend-mode:multiply" opacity="0.5">
<path d="M17.3063 29.0458C17.2825 29.5416 17.3686 30.0368 17.5595 30.5022C18.0186 31.6081 18.3325 32.3302 18.7308 32.8573C18.6093 33.3722 18.292 34.731 18.2751 35.0418C18.2582 35.3526 19.2878 35.1362 19.8076 35.0174C20.773 36.9673 22.5418 38.3201 23.092 38.4755C24.0507 38.7466 25.5663 37.3238 26.3697 36.2209C26.5704 35.9455 26.7007 35.6333 26.7511 35.3069C26.7073 35.1637 26.6769 35.0753 26.6769 35.0753C26.6769 35.0753 26.2245 36.6444 25.3266 36.4403C24.4287 36.2361 23.0549 34.6122 22.2886 34.0516C21.5224 33.491 21.8363 32.7537 21.6844 31.9189C21.5325 31.0841 19.2641 30.3498 19.1122 29.8715C18.9603 29.3931 19.4903 27.4128 19.4903 27.4128C19.4903 27.4128 20.3511 26.3769 20.1654 26.8034C20.0342 27.1733 19.9866 27.5631 20.0254 27.9499C20.0643 28.3367 20.1888 28.7124 20.3916 29.055C20.5339 29.3252 20.7596 29.5527 21.0416 29.7099C21.3237 29.8672 21.65 29.9476 21.9815 29.9416L22.8051 26.2581L21.0667 24.9601L19.0413 25.7218C17.5291 27.3579 17.0126 27.8027 17.3063 29.0458Z" fill="#92E3A9"/>
</g>
</g>
<path d="M30.0496 28.0313C29.7761 26.5079 27.842 23.4094 24.7736 23.5282C22.782 23.6074 21.8503 23.97 20.9862 24.4118C20.2818 24.7864 19.6252 25.2298 19.0284 25.7341C17.5296 27.358 17.003 27.8028 17.2933 29.0459C17.2695 29.5417 17.3556 30.0368 17.5465 30.5022C18.0056 31.6082 18.3195 32.3303 18.7178 32.8573C18.5963 33.3722 18.279 34.7311 18.2621 35.0418C18.2452 35.3526 19.2748 35.1363 19.7946 35.0175C20.76 36.9674 22.5288 38.3201 23.079 38.4755C24.0377 38.7467 25.5533 37.3239 26.3567 36.2209C27.1601 35.118 26.5525 33.878 26.5559 33.3844C26.5592 32.8908 28.3618 31.8062 29.0301 31.4619C29.6985 31.1176 30.3196 29.5516 30.0496 28.0313Z" stroke="#263238" stroke-miterlimit="10"/>
<path d="M19.1367 31.9372L19.4743 32.8085C19.4743 32.8085 20.2 33.0249 21.0844 32.1535" stroke="#263238" stroke-miterlimit="10" stroke-linecap="round"/>
<path d="M21.6309 36.0076C21.6309 36.0076 22.4342 35.9345 22.7583 34.9169" stroke="#263238" stroke-miterlimit="10" stroke-linecap="round"/>
<path d="M18.5732 31.209C18.5732 31.209 18.8129 30.5539 20.261 30.5539" stroke="#263238" stroke-miterlimit="10" stroke-linecap="round"/>
<path d="M25.9959 22.3155C24.9437 22.179 23.8825 22.1057 22.8195 22.0962C22.8195 22.0962 19.6397 20.4418 16.5848 22.2058C13.5299 23.9699 14.9983 27.0593 14.9983 27.8301C14.9983 28.6009 14.0194 28.604 14.6304 29.5972C15.2414 30.5905 17.3072 30.0421 17.3072 30.0421C17.329 29.6674 17.4387 29.3013 17.629 28.9678C17.8193 28.6342 18.0858 28.341 18.411 28.1074C19.5114 27.3366 20.3891 27.169 20.7537 27.3914C20.7537 27.3914 20.5106 29.0458 20.8752 29.7069C20.8752 29.7069 22.0971 30.2584 22.4651 30.2584C22.833 30.2584 22.2254 30.7245 23.444 31.1389C23.666 31.2108 23.9035 31.2354 24.1377 31.2105C24.372 31.1857 24.5967 31.1121 24.7942 30.9957C24.9731 30.3254 25.3647 29.3169 26.0938 29.5515C27.1638 29.8958 28.1394 32.2723 26.6913 33.0827C28.4331 33.3691 30.5428 30.5874 30.6677 28.0525C30.7926 25.5176 27.8052 22.6019 25.9959 22.3155Z" fill="#263238"/>
<path d="M20.8076 26.3037C20.8076 26.3037 21.7055 25.868 22.8059 26.8003C23.9064 27.7326 26.0465 28.9787 28.882 28.2932" stroke="white" stroke-width="0.5" stroke-linecap="round" stroke-linejoin="round"/>
<path d="M20.6826 25.5573C20.6826 25.5573 21.3003 24.6859 22.3333 24.6859C23.3662 24.6859 25.7797 25.993 27.7072 25.993" stroke="white" stroke-width="0.5" stroke-linecap="round" stroke-linejoin="round"/>
<path d="M19.98 27.2361C19.98 27.2361 18.8087 25.9321 17.7083 26.9893C16.6079 28.0465 17.3066 29.0458 17.3066 29.0458" stroke="white" stroke-width="0.5" stroke-linecap="round" stroke-linejoin="round"/>
<path d="M15.2988 28.1074C15.9701 27.5611 16.3873 26.8057 16.4668 25.993C16.6052 24.625 18.6744 23.4429 19.9807 24.5641" stroke="white" stroke-width="0.5" stroke-linecap="round" stroke-linejoin="round"/>
<path d="M17.4316 23.1321C17.4316 23.1321 19.5009 21.3285 21.2224 23.6288" stroke="white" stroke-width="0.5" stroke-linecap="round" stroke-linejoin="round"/>
<path d="M34.2723 111.813C34.2723 111.813 35.5449 113.599 35.4031 114.747L35.2647 115.896C35.2647 115.896 30.5963 117.051 29.6073 117.051C28.6182 117.051 23.3827 116.603 23.3827 116.603L23.1566 115.793C23.1407 115.733 23.1482 115.67 23.1777 115.614C23.2072 115.559 23.2569 115.514 23.3186 115.488L27.987 113.523L29.4587 112.069L34.2723 111.813Z" fill="white" stroke="#263238" stroke-width="1.00396" stroke-miterlimit="10"/>
<path d="M30.3161 116.152C31.582 116.24 33.9854 115.543 35.3795 115.098L35.2816 115.896C35.2816 115.896 30.5963 117.051 29.6073 117.051C28.6182 117.051 23.3827 116.603 23.3827 116.603L23.2207 116.024C24.0578 116.027 28.6419 116.036 30.3161 116.152Z" fill="#92E3A9" stroke="#263238" stroke-width="1.00396" stroke-miterlimit="10"/>
<path d="M27.9935 113.523L21.1985 116.192C21.1985 116.192 20.6179 117.505 21.1985 117.767C21.7791 118.029 34.4374 117.767 34.4374 117.767C34.4374 117.767 35.3117 115.692 33.9311 114.3C32.5505 112.907 27.9935 113.523 27.9935 113.523Z" fill="white" stroke="#263238" stroke-width="1.00396" stroke-miterlimit="10"/>
<path d="M34.437 117.767C34.437 117.767 21.7786 118.029 21.198 117.767C20.9179 117.639 20.9077 117.27 20.9719 116.92H34.6598C34.615 117.208 34.5404 117.491 34.437 117.767Z" fill="#92E3A9" stroke="#263238" stroke-width="1.00396" stroke-miterlimit="10"/>
<path d="M24.7808 67.1484C24.7808 67.1484 23.0052 74.2503 22.3335 78.6925C21.6618 83.1346 21.2668 92.0341 21.4086 93.0548C21.5504 94.0755 28.6188 111.177 28.6188 111.177L29.3243 112.7L34.2729 111.807C34.2729 111.807 32.0112 105.3 31.164 101.726C30.3167 98.152 28.4635 92.2809 28.4635 91.2603C28.4635 90.2396 32.8518 70.7466 33.1657 69.467C33.4796 68.1873 34.9041 66.2222 34.9041 66.2222L25.4289 66.0485L24.7808 67.1484Z" fill="#92E3A9" stroke="#263238" stroke-width="1.00396" stroke-miterlimit="10"/>
<path d="M24.7801 67.1483C24.7801 67.1483 23.7404 73.6348 24.1691 78.144C24.5978 82.6532 25.5193 92.2534 25.5193 93.6823C25.5193 95.1113 28.0746 103.645 28.2198 106.326C28.4459 110.199 28.1286 112.115 28.1286 112.115L27.9767 113.52C27.9767 113.52 30.9573 113.904 31.6088 114.071C32.3613 114.246 33.1378 114.322 33.9143 114.297C33.9143 114.297 34.9979 109.992 34.9979 106.323C34.9979 102.655 34.0966 95.1052 33.6477 92.0462C33.1987 88.9873 34.6131 77.1873 35.4165 74.9845C36.2198 72.7817 37.9751 68.1172 36.7937 65.7346C35.6122 63.3521 24.7801 67.1483 24.7801 67.1483Z" fill="#92E3A9" stroke="#263238" stroke-width="1.00396" stroke-miterlimit="10"/>
<path d="M38.1072 64.5403L37.9992 67.4408C37.9992 67.4408 36.0751 67.7851 33.4827 68.1903C31.3426 68.5255 25.9687 68.102 24.1594 67.9436C23.9945 67.9304 23.842 67.8589 23.7352 67.7448C23.6284 67.6307 23.5758 67.4831 23.5889 67.3342L23.7644 64.714L38.1072 64.5403Z" fill="#263238"/>
<path d="M30.5859 35.6268C30.5859 35.6268 27.5479 38.5913 26.4035 40.4346C25.2592 42.2778 24.8069 45.1022 24.3782 47.3263C23.9495 49.5504 25.1107 54.7725 24.7833 57.1703L23.747 64.7231C23.747 64.7231 23.5242 65.235 24.2702 65.7956C25.0162 66.3562 28.6584 66.5603 31.9496 66.7096C33.1513 66.7645 36.7395 66.0668 37.3269 66.0332C38.0357 65.9936 38.0594 65.1802 38.0897 64.5403C38.2315 61.5332 38.8324 53.5172 39.2273 50.0257C40.0408 42.9055 35.5884 36.032 30.5859 35.6268Z" fill="white" stroke="#263238" stroke-width="1.00396" stroke-miterlimit="10"/>
<g style="mix-blend-mode:multiply">
<path d="M38.8568 54.0748C38.9918 52.4935 39.1269 51.0585 39.245 50.0257C39.2788 49.721 39.299 49.4163 39.3159 49.1117L31.2449 50.3303L24.3115 48.1976C24.3123 49.4925 24.3934 50.7864 24.5546 52.0731L31.3563 53.7914L38.8568 54.0748Z" fill="#92E3A9"/>
</g>
<g style="mix-blend-mode:multiply">
<path d="M30.2858 35.9253C29.8268 36.3854 28.9154 37.3207 28.0479 38.314L33.172 43.0151L34.8597 42.4057L30.2858 35.9253Z" fill="#92E3A9"/>
</g>
<path d="M30.5866 35.6268C30.5866 35.6268 27.5486 38.5913 26.4042 40.4346C26.0649 40.9947 25.7901 41.5848 25.584 42.1956L31.6938 35.8248C31.3328 35.7261 30.9619 35.6598 30.5866 35.6268Z" fill="#263238"/>
<g style="mix-blend-mode:multiply">
<path d="M24.6152 46.1258L31.2448 48.094L39.2956 47.2592C39.1694 45.449 38.7238 43.6686 37.9757 41.9853L31.4845 44.3343L25.6819 41.9609C25.2074 43.3222 24.8508 44.7147 24.6152 46.1258Z" fill="#92E3A9"/>
</g>
<g style="mix-blend-mode:multiply">
<path d="M36.0279 61.5332C32.6654 62.0428 29.2152 61.7883 25.989 60.7928L24.3721 60.2932L23.8691 63.9493L25.7122 64.4154C29.2159 65.2996 32.8779 65.5543 36.4904 65.1649L37.979 65.0034C38.0565 64.8554 38.1001 64.6948 38.1073 64.5312C38.1478 63.7177 38.2187 62.5356 38.3098 61.1798L36.0279 61.5332Z" fill="#92E3A9"/>
</g>
<g style="mix-blend-mode:multiply">
<path d="M36.9286 56.5549C33.566 57.0664 30.115 56.8109 26.8897 55.8114L24.8306 55.1747C24.8817 55.8385 24.8715 56.505 24.8002 57.1672L24.5605 58.9252L26.6129 59.4432C30.1153 60.3283 33.7761 60.584 37.3877 60.1957L38.4004 60.086C38.4847 58.8673 38.5826 57.5694 38.6873 56.2867L36.9286 56.5549Z" fill="#92E3A9"/>
</g>
<path d="M5.26033 43.6708L11.7871 48.4073L12.0684 48.0915L5.54165 43.355L5.26033 43.6708Z" fill="#263238"/>
<path d="M33.7295 38.9142C33.7295 38.9142 36.1228 40.3858 36.1768 43.8621C36.2004 45.3855 36.0249 46.8083 35.6367 49.3036C35.2485 51.7989 32.8383 59.9245 30.9615 60.9117C29.0847 61.8988 26.1716 60.0342 26.1716 60.0342L12.082 51.5917L8.67606 49.1086L6.98828 46.2325L7.51824 45.3185L11.6736 48.1946L9.43556 46.3269L9.87439 45.8242L10.6845 46.333L13.0474 47.1313L13.5639 50.178L14.293 50.6289L27.7716 55.0741C27.7716 55.0741 27.6028 48.5267 27.7277 47.2745C27.8526 46.0223 28.0248 42.875 29.51 40.593" fill="white"/>
<mask id="mask4_19_1598" style="mask-type:luminance" maskUnits="userSpaceOnUse" x="6" y="38" width="31" height="24">
<path d="M33.7285 38.9142C33.7285 38.9142 36.1218 40.3858 36.1758 43.8621C36.1994 45.3855 36.0239 46.8083 35.6357 49.3036C35.2475 51.7989 32.8374 59.9246 30.9606 60.9117C29.0837 61.8988 26.1706 60.0342 26.1706 60.0342L12.081 51.5917L8.67509 49.1086L6.9873 46.2325L7.51727 45.3185L11.6726 48.1946L9.43459 46.327L9.87341 45.8242L10.6835 46.3331L13.0464 47.1313L13.5629 50.178L14.292 50.629L27.7706 55.0741C27.7706 55.0741 27.6019 48.5267 27.7268 47.2745C27.8517 46.0223 28.0238 42.875 29.5091 40.593" fill="white"/>
</mask>
<g mask="url(#mask4_19_1598)">
<g style="mix-blend-mode:multiply" opacity="0.5">
<path d="M27.6765 50.1262C27.6765 52.3869 27.7609 55.0741 27.7609 55.0741L14.2957 50.6472L13.5666 50.1963L13.0502 47.1495L10.6873 46.3513L9.8805 45.8334L9.44168 46.3361L11.6729 48.1946L7.51761 45.3185L7.01465 46.2172L8.70243 49.0934L12.1084 51.5917L12.9658 52.1066L31.582 57.5206L27.6765 50.1262Z" fill="#92E3A9"/>
</g>
</g>
<path d="M33.7295 38.9142C33.7295 38.9142 36.1228 40.3858 36.1768 43.8621C36.2004 45.3855 36.0249 46.8083 35.6367 49.3036C35.2485 51.7989 32.8383 59.9245 30.9615 60.9117C29.0847 61.8988 26.1716 60.0342 26.1716 60.0342L12.082 51.5917L8.67606 49.1086L6.98828 46.2325L7.51824 45.3185L11.6736 48.1946L9.43556 46.3269L9.87439 45.8242L10.6845 46.333L13.0474 47.1313L13.5639 50.178L14.293 50.6289L27.7716 55.0741C27.7716 55.0741 27.6028 48.5267 27.7277 47.2745C27.8526 46.0223 28.0248 42.875 29.51 40.593" stroke="#263238" stroke-width="1.00396" stroke-miterlimit="10"/>
<path d="M27.7704 55.0741L32.9148 58.4255L34.2481 56.2928C34.2481 56.2928 35.1696 55.6378 35.3047 55.1442C35.4397 54.6506 35.2675 53.8493 35.4059 53.3558C35.5443 52.8622 36.2329 52.3991 36.2971 51.2048C36.3612 50.0105 36.2971 49.0142 36.2971 49.0142C36.2971 49.0142 37.411 44.8798 37.2895 43.0822C37.168 41.2846 35.2473 38.1069 33.708 38.0368C32.1688 37.9667 30.167 38.1769 28.6143 40.2975C27.0615 42.418 27.3788 48.609 27.1358 48.9959C26.8928 49.3828 27.2303 51.2931 27.2303 51.2931C27.0954 51.384 26.9835 51.4997 26.902 51.6326C26.8205 51.7655 26.7713 51.9126 26.7577 52.064C26.7307 52.5606 27.3248 53.7823 27.3248 53.7823L27.7704 55.0741Z" fill="white" stroke="#263238" stroke-width="1.00396" stroke-miterlimit="10"/>
<g style="mix-blend-mode:multiply">
<path d="M27.2717 47.4055C27.2822 47.9371 27.2382 48.4685 27.14 48.9928C26.924 49.3401 27.1704 50.9092 27.2244 51.2291C30.1179 52.0403 33.1775 52.2486 36.173 51.8385C36.2374 51.6266 36.2758 51.409 36.2878 51.1895C36.3553 49.9982 36.2878 48.9989 36.2878 48.9989C36.2878 48.9989 36.3857 48.6302 36.5207 48.0696C33.4184 48.2476 30.3038 48.024 27.2717 47.4055Z" fill="#92E3A9"/>
</g>
<g style="mix-blend-mode:multiply">
<path d="M28.4061 40.6356C27.9234 41.51 27.6533 42.8231 27.498 44.1546C30.5624 45.2101 33.8663 45.5731 37.1218 45.2118C37.2517 44.5072 37.3093 43.7932 37.2939 43.0791C37.2355 42.5146 37.0877 41.9605 36.8551 41.4338C34.0126 41.4937 31.1732 41.2255 28.4061 40.6356Z" fill="#92E3A9"/>
</g>
<path d="M27.3252 53.8158L27.7606 55.0741L32.905 58.4255L34.2383 56.2928C34.2383 56.2928 35.1599 55.6378 35.2949 55.1442C35.319 55.0584 35.3337 54.9706 35.3388 54.8822C32.6278 54.8399 29.9343 54.4815 27.3252 53.8158Z" fill="#263238"/>
<path d="M31.0486 114.032C31.0486 114.032 31.1634 111.393 31.7237 107.536C32.2841 103.679 30.9372 98.2007 30.7111 97.2867C30.4849 96.3726 30.8258 94.3435 30.5997 93.6306C30.3735 92.9176 29.2798 89.877 29.9246 86.3489C30.5693 82.8208 31.0925 73.4947 31.0925 73.4947C31.0925 73.4947 29.4689 72.3034 28.9929 70.7526C28.5169 69.2018 28.8815 68.7144 28.8815 68.7144" stroke="#263238" stroke-width="1.00396" stroke-miterlimit="10"/>
<path d="M31.8022 68.8575L31.1777 71.9774" stroke="#263238" stroke-width="1.00396" stroke-miterlimit="10"/>
</svg>
